SplineFontDB: 3.0
FontName: GoudyBookletter1911
FullName: Goudy Bookletter 1911
FamilyName: GoudyBookletter1911
Weight: Regular
Copyright: Created by trashman with FontForge 2.0 (http://fontforge.sf.net)
UComments: "Scaling: cut 3200-dpi samples 640 pixels high, then scale them to 130%." 
Version: 001.000
ItalicAngle: 0
UnderlinePosition: -204
UnderlineWidth: 102
Ascent: 1638
Descent: 410
LayerCount: 3
Layer: 0 0 "Back"  1
Layer: 1 0 "Fore"  0
Layer: 2 0 "backup"  1
NeedsXUIDChange: 1
XUID: [1021 658 797806517 11473725]
FSType: 0
OS2Version: 0
OS2_WeightWidthSlopeOnly: 0
OS2_UseTypoMetrics: 1
CreationTime: 1249326201
ModificationTime: 1249372630
OS2TypoAscent: 0
OS2TypoAOffset: 1
OS2TypoDescent: 0
OS2TypoDOffset: 1
OS2TypoLinegap: 184
OS2WinAscent: 0
OS2WinAOffset: 1
OS2WinDescent: 0
OS2WinDOffset: 1
HheadAscent: 0
HheadAOffset: 1
HheadDescent: 0
HheadDOffset: 1
OS2Vendor: 'PfEd'
DEI: 91125
Encoding: UnicodeBmp
UnicodeInterp: none
NameList: Adobe Glyph List
DisplaySize: -72
AntiAlias: 1
FitToEm: 1
WinInfo: 96 8 6
BeginPrivate: 8
BlueValues 25 [-41 0 942 996 1607 1641]
BlueScale 9 0.0183333
BlueFuzz 1 0
BlueShift 1 7
StdHW 4 [90]
StemSnapH 4 [90]
StdVW 5 [145]
StemSnapV 5 [145]
EndPrivate
BeginChars: 65536 53

StartChar: a
Encoding: 97 97 0
Width: 971
VWidth: 0
Flags: HMW
HStem: -41 103<296.094 508.482> -25 133<750.837 858.471> 173 20G<890.255 917> 456 77<394 574> 903 75<286.233 491.91>
VStem: 70 178<109.715 355.328> 574 156<123.706 456 526.87 830.872>
LayerCount: 3
Fore
SplineSet
70 183 m 0
 70 478 334 488 574 533 c 1
 574 664 l 2
 574 882 429 903 382 903 c 0
 225 903 248 709 160 709 c 0
 114 709 80 747 80 793 c 0
 80 875 208 978 423 978 c 0
 592 978 730 893 730 682 c 2
 730 238 l 2
 730 116 804 108 816 108 c 0x5e
 879 108 872 193 909 193 c 0
 925 193 932 180 932 161 c 0
 932 101 859 -25 759 -25 c 0x5e
 620 -25 609 109 609 109 c 1
 609 109 543 -41 340 -41 c 0x9e
 158 -41 70 27 70 183 c 0
248 237 m 0x9e
 248 122 319 62 396 62 c 0
 483 62 574 118 574 227 c 2
 574 456 l 1
 519 453 305 413 275 352 c 0
 257 317 248 281 248 237 c 0x9e
EndSplineSet
EndChar

StartChar: b
Encoding: 98 98 1
Width: 1138
VWidth: 1000
Flags: HMW
HStem: -36 84<340.286 714.919> 856 118<430.349 691.054> 1587 20G<271.5 291>
VStem: 12 21G 126 21G<12.5 39> 155 145<884.937 1424.8> 910 152<271.279 618.997>
LayerCount: 3
Fore
SplineSet
12 1491 m 0
 12 1519 62 1528 154 1567 c 0
 204 1589 262 1607 281 1607 c 0
 301 1607 306 1590 306 1557 c 2
 306 830 l 1
 306 830 418 974 598 974 c 0
 946 974 1062 674 1062 485 c 0
 1062 221 870 -36 522 -36 c 0
 412 -36 320 -10 261 -10 c 0
 218 -10 182 -34 148 -34 c 0
 129 -34 126 -23 126 -7 c 0
 126 171 155 299 155 1350 c 0
 155 1442 12 1461 12 1491 c 0
286 233 m 2
 286 118 316 48 542 48 c 0
 777 48 910 228 910 421 c 0
 910 679 721 856 523 856 c 0
 344 856 286 720 286 672 c 2
 286 233 l 2
EndSplineSet
Layer: 2
SplineSet
281 1607 m 0
 301 1607 306 1590 306 1557 c 2
 306 830 l 1
 306 830 418 974 598 974 c 0
 946 974 1062 674 1062 485 c 0
 1062 221 870 -36 522 -36 c 0
 412 -36 320 -10 261 -10 c 0
 218 -10 182 -34 148 -34 c 0
 129 -34 126 -23 126 -7 c 0
 126 171 155 299 155 1350 c 0
 155 1442 12 1461 12 1491 c 0
 12 1519 62 1528 154 1567 c 0
 204 1589 262 1607 281 1607 c 0
910 421 m 0
 910 679 721 856 523 856 c 0
 344 856 286 720 286 672 c 2
 286 233 l 2
 286 118 316 48 542 48 c 0
 777 48 910 228 910 421 c 0
EndSplineSet
EndChar

StartChar: c
Encoding: 99 99 2
Width: 1023
VWidth: 1000
Flags: HMW
HStem: -41 145<431.458 746.833> 213 20G<916.5 936.5> 870 116<408.821 626.949>
VStem: 80 160<316.617 639.499> 876 20G 931 20G<-14.5 5.5>
LayerCount: 3
Fore
SplineSet
80 442 m 0
 80 711 331 986 583 986 c 0
 766 986 896 865 896 808 c 0
 896 755 852 721 804 721 c 0
 723 721 634 870 501 870 c 0
 334 870 240 696 240 514 c 0
 240 331 352 104 594 104 c 0
 810 104 903 233 930 233 c 0
 943 233 951 226 951 214 c 0
 951 127 789 -41 539 -41 c 0
 244 -41 80 207 80 442 c 0
EndSplineSet
EndChar

StartChar: d
Encoding: 100 100 3
Width: 1124
VWidth: 1000
Flags: HMW
HStem: -42 21G<800.5 818> -32 144<402.031 668.146> 912 74<339.11 697.911> 1621 20G<906.5 920>
VStem: 29 142<350.798 704.141> 607 21G 786 142<170.125 854.345 908 1409.91> 1062 20G
LayerCount: 3
Fore
SplineSet
29 487 m 0
 29 738 184 986 526 986 c 0
 686 986 786 908 786 908 c 1
 781 1357 l 2
 781 1401 766 1401 649 1447 c 1
 634 1451 607 1460 607 1482 c 0
 607 1495 620 1503 627 1507 c 0
 860 1621 902 1641 911 1641 c 0
 929 1641 937 1628 937 1610 c 0
 937 1537 931 1324 931 897 c 0
 931 674 928 399 928 292 c 0
 928 185 928 168 972 168 c 2
 1032 168 l 2
 1045 168 1082 166 1082 141 c 0
 1082 123 1063 116 947 52 c 0
 851 -1 829 -42 807 -42 c 0xbf
 794 -42 790 -39 790 -12 c 2
 790 105 l 1
 750 70 l 2
 732 55 646 -32 484 -32 c 0
 192 -32 29 229 29 487 c 0
171 550 m 0x7f
 171 277 378 112 564 112 c 0
 745 112 786 210 786 283 c 2
 786 796 l 2
 786 856 643 912 508 912 c 0
 332 912 171 826 171 550 c 0x7f
EndSplineSet
EndChar

StartChar: e
Encoding: 101 101 4
Width: 934
VWidth: 1000
Flags: HMW
HStem: -33 146<377.009 684.293> 235 20G<870.5 894> 887 109<305.764 536.036>
VStem: 50 145<406.622 718.532> 664 213<694.273 785.255> 888 20G<-17.5 6>
LayerCount: 3
Fore
SplineSet
50 482 m 0
 50 827 282 996 492 996 c 0
 708 996 877 787 877 736 c 0
 877 700 807 675 786 667 c 2
 209 446 l 1
 211 418 246 113 551 113 c 0
 759 113 851 255 890 255 c 0
 898 255 908 250 908 234 c 0
 908 155 720 -33 497 -33 c 0
 308 -33 50 87 50 482 c 0
195 585 m 0
 195 565 196 548 198 534 c 1
 604 688 l 2
 636 700 664 711 664 731 c 0
 664 761 525 887 384 887 c 0
 234 887 195 697 195 585 c 0
EndSplineSet
EndChar

StartChar: f
Encoding: 102 102 5
Width: 644
VWidth: 1000
Flags: HMW
HStem: 0 92<34.4772 181.625 344.646 495.781> 849 95<34.0378 196 337 608.928> 1504 120<508.885 764.119>
VStem: 196 143<96.2256 849 942 1258.4> 800 20G
LayerCount: 3
Fore
SplineSet
34 41 m 0
 34 98 108 80 153 95 c 0
 193 108 196 183 196 506 c 2
 196 849 l 1
 62 849 l 2
 47 849 34 849 34 894 c 0
 34 936 47 942 62 942 c 2
 199 942 l 1
 199 994 l 2
 199 1086 209 1266 322 1415 c 0
 411 1533 537 1624 678 1624 c 0
 789 1624 820 1571 820 1532 c 0
 820 1490 785 1459 726 1459 c 0
 664 1459 636 1509 568 1509 c 0
 396 1509 334 1266 334 1009 c 2
 334 944 l 1
 583 944 l 2
 598 944 609 936 609 900 c 0
 609 855 598 849 583 849 c 2
 339 849 l 1
 338 623 337 561 337 511 c 0
 337 480 341 365 341 176 c 0
 341 82 383 96 452 92 c 0
 477 91 496 75 496 53 c 0
 496 35 495 0 459 0 c 2
 70 0 l 2
 40 0 34 17 34 41 c 0
EndSplineSet
Layer: 2
SplineSet
496 53 m 4
 496 35 495 -5 459 -5 c 4
 452 -5 379 0 273 0 c 4
 165 0 77 -5 70 -5 c 4
 40 -5 34 17 34 41 c 4
 34 98 108 78 153 93 c 4
 193 106 196 183 196 506 c 6
 196 849 l 5
 62 849 l 6
 47 849 34 849 34 894 c 4
 34 936 47 942 62 942 c 6
 199 942 l 5
 199 994 l 6
 199 1086 209 1266 322 1415 c 4
 411 1533 537 1624 678 1624 c 4
 789 1624 820 1571 820 1532 c 4
 820 1490 785 1459 726 1459 c 4
 664 1459 636 1509 568 1509 c 4
 396 1509 334 1266 334 1009 c 6
 334 942 l 5
 583 942 l 6
 598 942 609 936 609 900 c 4
 609 855 598 849 583 849 c 6
 339 849 l 5
 338 623 337 561 337 511 c 4
 337 480 341 365 341 176 c 4
 341 86 383 91 452 87 c 4
 477 86 496 75 496 53 c 4
EndSplineSet
EndChar

StartChar: g
Encoding: 103 103 6
Width: 1010
VWidth: 1000
Flags: HMW
HStem: -558 106<329.266 746.929> -102 148<244.795 695.668> 237 85<344.357 585.454> 900 74<309.595 528.401> 1000 20G<852.5 897>
VStem: 54 122<-331.761 -143.192> 59 162<468.831 761.606> 94 122<81.3538 199.121> 663 165<434.897 762.117> 826 139<-377.909 -183.019> 946 21G<19 19 21 21>
LayerCount: 3
Fore
SplineSet
54 -288 m 0xfc40
 54 -127 182 -70 182 -70 c 1
 182 -70 94 -12 94 92 c 0xf9
 94 207 248 291 248 291 c 1
 248 291 59 385 59 585 c 0xfa
 59 778 218 974 432 974 c 0
 644 974 671 885 734 885 c 0
 825 885 826 1020 879 1020 c 0
 915 1020 967 979 967 931 c 0
 967 834 814 806 779 806 c 1
 779 792 828 716 828 611 c 0
 828 399 660 237 444 237 c 0
 368 237 343 245 313 245 c 0
 272 245 216 204 216 153 c 0xf9a0
 216 51 335 54 598 46 c 0
 769 41 876 27 937 -94 c 0
 955 -129 965 -170 965 -212 c 0
 965 -338 893 -558 513 -558 c 0
 136 -558 54 -394 54 -288 c 0xfc40
176 -220 m 0
 176 -366 356 -452 568 -452 c 0
 764 -452 826 -349 826 -282 c 0xfc40
 826 -114 605 -133 312 -106 c 0
 297 -105 285 -102 273 -102 c 0
 218 -102 176 -170 176 -220 c 0
221 656 m 0xfa80
 221 501 318 322 453 322 c 0
 594 322 663 417 663 560 c 0
 663 788 534 900 416 900 c 0
 315 900 221 818 221 656 c 0xfa80
EndSplineSet
EndChar

StartChar: h
Encoding: 104 104 7
Width: 1166
VWidth: 1000
Flags: HMW
HStem: 0 95<40.6006 169.453 641.288 820.642 998.01 1115.8> 876 105<457.457 707.617> 1620 20G<296 324.5>
VStem: 38 21G 190 145<108.84 799.932 855 1409.18> 829 164<105.424 715.115>
LayerCount: 3
Fore
SplineSet
38 1474 m 0
 38 1490 67 1509 72 1511 c 0
 213 1593 280 1640 312 1640 c 0
 337 1640 348 1621 348 1586 c 2
 342 855 l 1
 342 855 459 981 636 981 c 0
 700 981 917 952 970 649 c 0
 982 580 989 480 993 256 c 0
 996 95 990 115 1078 92 c 0
 1100 86 1117 72 1117 38 c 0
 1117 9 1092 0 1056 0 c 2
 693 0 l 2
 686 0 641 2 641 45 c 0
 641 93 663 95 707 95 c 0
 812 95 827 125 828 194 c 0
 829 232 829 268 829 302 c 0
 829 650 802 876 568 876 c 0
 496 876 342 818 342 721 c 0
 342 686 335 580 335 369 c 0
 335 258 339 161 340 154 c 0
 358 55 525 128 525 45 c 0
 525 24 521 0 500 0 c 2
 91 0 l 2
 51 0 40 31 40 52 c 0
 40 92 74 97 96 97 c 2
 109 97 l 2
 142 97 176 120 178 188 c 0
 187 449 190 667 190 851 c 0
 190 1074 185 1246 181 1383 c 0
 180 1414 38 1431 38 1474 c 0
EndSplineSet
EndChar

StartChar: i
Encoding: 105 105 8
Width: 605
VWidth: 1000
Flags: HMW
HStem: 0 91<58.2998 225.523 401.612 563.368> 976 20G<359.5 383> 1311 174<292.443 446.463>
VStem: 62 21G 238 151<94.7802 767.181>
LayerCount: 3
Fore
SplineSet
58 40 m 0
 58 78 84 82 116 82 c 0
 231 82 238 87 238 368 c 0
 238 453 237 566 237 714 c 0
 237 751 237 752 90 812 c 0
 78 817 62 824 62 842 c 0
 62 879 104 886 220 930 c 0
 294 958 346 996 373 996 c 0
 393 996 396 988 396 970 c 0
 396 910 389 849 389 365 c 0
 389 114 400 98 450 91 c 0
 509 82 564 99 564 36 c 0
 564 19 555 0 536 0 c 2
 94 0 l 2
 58 0 58 28 58 40 c 0
282 1398 m 0
 282 1441 311 1485 373 1485 c 0
 417 1485 460 1457 460 1401 c 0
 460 1350 416 1311 367 1311 c 0
 311 1311 282 1354 282 1398 c 0
EndSplineSet
EndChar

StartChar: j
Encoding: 106 106 9
Width: 721
VWidth: 1000
Flags: HMW
HStem: -546 180<60.9427 266.745> 974 20G<468.5 492> 1281 169<402.584 554.715>
VStem: 48 21G 201 21G 366 145<-266.25 778.855> 393 173<1292.95 1439.99>
LayerCount: 3
Fore
SplineSet
48 -464 m 0
 48 -381 118 -352 158 -352 c 0
 188 -352 221 -366 252 -366 c 0
 363 -366 366 -212 366 -30 c 0
 366 94 361 152 361 739 c 0
 361 792 201 803 201 853 c 0
 201 884 224 886 340 930 c 0
 414 958 455 994 482 994 c 0
 502 994 511 978 511 960 c 0
 511 -42 516 209 516 -79 c 0
 516 -130 514 -217 474 -270 c 0
 302 -500 232 -546 134 -546 c 0
 78 -546 48 -506 48 -464 c 0
393 1364 m 0
 393 1422 437 1450 481 1450 c 0
 524 1450 566 1426 566 1369 c 0
 566 1317 523 1281 480 1281 c 0
 423 1281 393 1320 393 1364 c 0
EndSplineSet
EndChar

StartChar: k
Encoding: 107 107 10
Width: 1084
VWidth: 1000
Flags: HMW
HStem: 0 91<868.68 1016.36> 859 92<770.922 966.922> 1596 20G<293 320.5>
VStem: 56 21G 175 158<84.2733 395 496 1457.14>
LayerCount: 3
Fore
SplineSet
56 1508 m 0
 56 1532 95 1544 108 1548 c 2
 108 1548 279 1616 307 1616 c 0
 334 1616 339 1591 339 1568 c 2
 331 496 l 1
 331 496 517 682 594 772 c 0
 597 775 626 802 626 830 c 0
 626 891 523 866 523 918 c 0
 523 927 530 951 578 951 c 2
 920 951 l 2
 944 951 968 942 968 916 c 0
 968 864 929 881 845 859 c 0
 744 832 518 577 518 577 c 1
 518 577 536 530 787 224 c 0
 845 152 890 109 939 91 c 0
 981 76 1017 87 1017 36 c 0
 1017 19 1001 0 975 0 c 2
 595 0 l 2
 582 0 551 0 551 29 c 0
 551 110 664 51 664 117 c 0
 664 161 419 482 419 482 c 1
 333 395 l 1
 335 119 l 2
 336 43 513 119 513 33 c 0
 513 2 491 0 478 0 c 2
 101 0 l 2
 72 0 63 18 63 33 c 0
 63 108 175 57 175 126 c 2
 181 1398 l 2
 181 1456 56 1478 56 1508 c 0
EndSplineSet
EndChar

StartChar: l
Encoding: 108 108 11
Width: 529
VWidth: 1000
Flags: HMW
HStem: 0 80<46.5 454.5> 1619 20G<278.505 303.5>
VStem: 40 21G 184 144<87.8027 1403.93>
LayerCount: 3
Fore
SplineSet
26 36 m 0
 26 103 184 59 184 128 c 2
 181 1352 l 2
 181 1410 40 1435 40 1474 c 0
 40 1492 83 1521 132 1551 c 0
 251 1622 272 1639 302 1639 c 0
 315 1639 324 1613 324 1571 c 2
 322 1083 l 2
 322 987 321 946 321 912 c 0
 321 866 322 836 323 704 c 2
 328 122 l 2
 328 47 483 106 483 33 c 0
 483 2 461 0 448 0 c 2
 61 0 l 2
 32 0 26 21 26 36 c 0
EndSplineSet
EndChar

StartChar: m
Encoding: 109 109 12
Width: 1651
VWidth: 1000
Flags: HWO
HStem: -6 43 371 51<220 234>
VStem: 78 62<60 65 65 306> 322 66<75 258> 576 71<64 69 69 196>
LayerCount: 3
Fore
SplineSet
214 968 m 1
 253 992 278 1005 290 1005 c 0
 312 1005 315 984 315 973 c 2
 315 816 l 1
 315 816 402 988 572 988 c 0
 778 988 852 814 852 814 c 1
 852 814 942 1000 1113 1000 c 0
 1155 1000 1201 989 1252 962 c 0
 1399 884 1448 807 1448 381 c 0
 1448 344 1448 307 1448 270 c 0
 1448 100 1454 104 1560 90 c 0
 1600 85 1613 61 1613 36 c 0
 1613 19 1595 -5 1547 -5 c 0
 1539 -5 1492 0 1368 0 c 0
 1306 0 1198 -5 1191 -5 c 0
 1161 -5 1131 8 1131 32 c 0
 1131 128 1298 34 1298 182 c 2
 1298 465 l 2
 1298 856 1148 884 1080 884 c 0
 918 884 868 774 868 718 c 0
 868 651 886 476 886 336 c 2
 886 181 l 2
 886 102 917 91 1024 82 c 0
 1049 80 1067 61 1067 36 c 0
 1067 19 1056 -5 998 -5 c 0
 990 -5 916 0 792 0 c 0
 730 0 635 -5 628 -5 c 0
 589 -5 559 8 559 32 c 0
 559 78 591 78 610 82 c 0
 711 101 737 103 737 204 c 0
 737 217 729 487 723 618 c 0
 719 694 710 782 645 831 c 0
 606 861 575 876 510 876 c 0
 414 876 323 810 323 703 c 2
 323 270 l 2
 323 101 348 90 455 81 c 0
 480 79 508 61 508 36 c 0
 508 19 490 -5 442 -5 c 0
 434 -5 367 0 243 0 c 0
 181 0 107 -5 100 -5 c 0
 70 -5 40 8 40 32 c 0
 40 73 72 77 91 82 c 0
 170 102 180 107 180 196 c 0
 180 213 174 574 174 762 c 0
 174 804 58 837 58 873 c 0
 58 893 109 914 160 938 c 1
 214 968 l 1
EndSplineSet
Layer: 2
SplineSet
510 876 m 4
 414 876 328 809 328 703 c 6
 328 147 l 6
 328 80 356 98 458 82 c 4
 480 79 501 62 501 44 c 4
 501 2 477 0 452 -0 c 6
 81 0 l 6
 54 0 40 14 40 44 c 4
 40 120 183 53 182 143 c 6
 174 762 l 6
 174 815.149816116 59 814.3359375 59 868 c 4
 59 893.8953125 267 1001 292 1001 c 4
 310 1001 323 983 323 971 c 6
 323 884 l 6
 323 877 325 870 332 870 c 4
 344 870 449 988 588 988 c 4
 750 988 858 850 858 850 c 5
 858 850 931 996 1108 996 c 4
 1451 996 1451 687 1451 452 c 6
 1451 159 l 6
 1451 32 1609 132 1609 38 c 4
 1609 17 1608 0 1578 0 c 6
 1176 0 l 6
 1143 0 1136 19 1136 43 c 4
 1136 134 1303 29 1303 151 c 6
 1303 465 l 6
 1303 856 1133 884 1080 884 c 4
 918 884 876 780 876 748 c 4
 876 645 884 337 886 181 c 5
 886 9 1058 145 1058 31 c 4
 1058 10 1050 0 1025 0 c 6
 596 0 l 6
 568 0 548 8 548 38 c 4
 548 75 557 78 654 94 c 4
 701 102 737 105 737 204 c 4
 737 217 729 487 723 618 c 4
 719 694 710 782 645 831 c 4
 606 861 575 876 510 876 c 4
EndSplineSet
EndChar

StartChar: n
Encoding: 110 110 13
Width: 565
VWidth: 0
Flags: W
HStem: 606 213<205.285 376.076>
VStem: 184 213<627.285 798.076>
LayerCount: 3
Fore
SplineSet
184 713 m 4
 184 772 232 819 291 819 c 4
 350 819 397 772 397 713 c 4
 397 654 350 606 291 606 c 4
 232 606 184 654 184 713 c 4
EndSplineSet
Validated: 1
EndChar

StartChar: o
Encoding: 111 111 14
Width: 565
VWidth: 0
Flags: W
HStem: 606 213<205.285 376.076>
VStem: 184 213<627.285 798.076>
LayerCount: 3
Fore
SplineSet
184 713 m 4
 184 772 232 819 291 819 c 4
 350 819 397 772 397 713 c 4
 397 654 350 606 291 606 c 4
 232 606 184 654 184 713 c 4
EndSplineSet
Validated: 1
EndChar

StartChar: p
Encoding: 112 112 15
Width: 565
VWidth: 0
Flags: W
HStem: 606 213<205.285 376.076>
VStem: 184 213<627.285 798.076>
LayerCount: 3
Fore
SplineSet
184 713 m 4
 184 772 232 819 291 819 c 4
 350 819 397 772 397 713 c 4
 397 654 350 606 291 606 c 4
 232 606 184 654 184 713 c 4
EndSplineSet
Validated: 1
EndChar

StartChar: q
Encoding: 113 113 16
Width: 565
VWidth: 0
Flags: W
HStem: 606 213<205.285 376.076>
VStem: 184 213<627.285 798.076>
LayerCount: 3
Fore
SplineSet
184 713 m 4
 184 772 232 819 291 819 c 4
 350 819 397 772 397 713 c 4
 397 654 350 606 291 606 c 4
 232 606 184 654 184 713 c 4
EndSplineSet
Validated: 1
EndChar

StartChar: r
Encoding: 114 114 17
Width: 565
VWidth: 0
Flags: W
HStem: 606 213<205.285 376.076>
VStem: 184 213<627.285 798.076>
LayerCount: 3
Fore
SplineSet
184 713 m 4
 184 772 232 819 291 819 c 4
 350 819 397 772 397 713 c 4
 397 654 350 606 291 606 c 4
 232 606 184 654 184 713 c 4
EndSplineSet
Validated: 1
EndChar

StartChar: s
Encoding: 115 115 18
Width: 565
VWidth: 0
Flags: W
HStem: 606 213<205.285 376.076>
VStem: 184 213<627.285 798.076>
LayerCount: 3
Fore
SplineSet
184 713 m 4
 184 772 232 819 291 819 c 4
 350 819 397 772 397 713 c 4
 397 654 350 606 291 606 c 4
 232 606 184 654 184 713 c 4
EndSplineSet
Validated: 1
EndChar

StartChar: t
Encoding: 116 116 19
Width: 565
VWidth: 0
Flags: W
HStem: 606 213<205.285 376.076>
VStem: 184 213<627.285 798.076>
LayerCount: 3
Fore
SplineSet
184 713 m 4
 184 772 232 819 291 819 c 4
 350 819 397 772 397 713 c 4
 397 654 350 606 291 606 c 4
 232 606 184 654 184 713 c 4
EndSplineSet
Validated: 1
EndChar

StartChar: u
Encoding: 117 117 20
Width: 565
VWidth: 0
Flags: W
HStem: 606 213<205.285 376.076>
VStem: 184 213<627.285 798.076>
LayerCount: 3
Fore
SplineSet
184 713 m 4
 184 772 232 819 291 819 c 4
 350 819 397 772 397 713 c 4
 397 654 350 606 291 606 c 4
 232 606 184 654 184 713 c 4
EndSplineSet
Validated: 1
EndChar

StartChar: v
Encoding: 118 118 21
Width: 565
VWidth: 0
Flags: W
HStem: 606 213<205.285 376.076>
VStem: 184 213<627.285 798.076>
LayerCount: 3
Fore
SplineSet
184 713 m 4
 184 772 232 819 291 819 c 4
 350 819 397 772 397 713 c 4
 397 654 350 606 291 606 c 4
 232 606 184 654 184 713 c 4
EndSplineSet
Validated: 1
EndChar

StartChar: w
Encoding: 119 119 22
Width: 565
VWidth: 0
Flags: W
HStem: 606 213<205.285 376.076>
VStem: 184 213<627.285 798.076>
LayerCount: 3
Fore
SplineSet
184 713 m 4
 184 772 232 819 291 819 c 4
 350 819 397 772 397 713 c 4
 397 654 350 606 291 606 c 4
 232 606 184 654 184 713 c 4
EndSplineSet
Validated: 1
EndChar

StartChar: x
Encoding: 120 120 23
Width: 565
VWidth: 0
Flags: W
HStem: 606 213<205.285 376.076>
VStem: 184 213<627.285 798.076>
LayerCount: 3
Fore
SplineSet
184 713 m 4
 184 772 232 819 291 819 c 4
 350 819 397 772 397 713 c 4
 397 654 350 606 291 606 c 4
 232 606 184 654 184 713 c 4
EndSplineSet
Validated: 1
EndChar

StartChar: y
Encoding: 121 121 24
Width: 565
VWidth: 0
Flags: W
HStem: 606 213<205.285 376.076>
VStem: 184 213<627.285 798.076>
LayerCount: 3
Fore
SplineSet
184 713 m 4
 184 772 232 819 291 819 c 4
 350 819 397 772 397 713 c 4
 397 654 350 606 291 606 c 4
 232 606 184 654 184 713 c 4
EndSplineSet
Validated: 1
EndChar

StartChar: z
Encoding: 122 122 25
Width: 565
VWidth: 0
Flags: W
HStem: 606 213<205.285 376.076>
VStem: 184 213<627.285 798.076>
LayerCount: 3
Fore
SplineSet
184 713 m 4
 184 772 232 819 291 819 c 4
 350 819 397 772 397 713 c 4
 397 654 350 606 291 606 c 4
 232 606 184 654 184 713 c 4
EndSplineSet
Validated: 1
EndChar

